<?xml version="1.0" standalone="no"?>
<!DOCTYPE svg PUBLIC "-//W3C//DTD SVG 20010904//EN"
 "http://www.w3.org/TR/2001/REC-SVG-20010904/DTD/svg10.dtd">
<svg version="1.0" xmlns="http://www.w3.org/2000/svg"
 width="459.000000pt" height="213.000000pt" viewBox="0 0 459.000000 213.000000"
 preserveAspectRatio="xMidYMid meet">

<g transform="translate(0.000000,213.000000) scale(0.100000,-0.100000)"
fill="#a130fd" stroke="none">
<path d="M985 1911 c-238 -38 -431 -182 -534 -401 -100 -211 -72 -484 66 -658
44 -55 66 -66 96 -51 59 32 61 75 7 172 -55 101 -74 181 -67 292 10 199 112
351 295 442 66 33 82 37 175 41 172 7 276 -32 394 -149 102 -101 147 -211 147
-359 0 -41 -6 -100 -13 -130 -29 -120 -118 -240 -179 -240 -39 0 -52 17 -52
65 0 98 -60 191 -154 240 -97 50 -220 24 -299 -65 -68 -74 -67 -69 -67 -473 0
-353 1 -365 21 -391 28 -35 77 -36 110 0 l24 26 5 353 c5 328 6 354 24 374 45
49 145 30 165 -32 7 -20 11 -156 10 -354 0 -277 2 -326 16 -353 29 -55 93 -60
129 -8 13 18 16 53 16 194 0 200 1 202 103 256 104 56 170 126 228 242 88 178
100 323 41 496 -63 183 -164 304 -334 398 -105 58 -265 89 -373 73z"/>
<path d="M982 1580 c-135 -82 -68 -291 89 -277 114 10 173 122 116 221 -41 71
-136 98 -205 56z"/>
<path d="M1553 459 c-18 -18 -18 -183 0 -198 18 -14 37 5 37 36 0 18 6 23 24
23 39 0 70 32 70 74 0 20 -7 43 -16 52 -21 21 -99 30 -115 13z m82 -64 c0 -23
-5 -31 -22 -33 -20 -3 -23 1 -23 33 0 32 3 36 23 33 17 -2 22 -10 22 -33z"/>
<path d="M1844 463 c-12 -2 -32 -15 -45 -29 -31 -33 -34 -111 -5 -143 52 -57
143 -44 172 26 35 83 -33 165 -122 146z m70 -55 c46 -66 -19 -153 -76 -101
-23 20 -24 80 -1 105 22 25 59 23 77 -4z"/>
<path d="M2063 459 c-18 -18 -18 -183 0 -198 20 -16 37 6 37 49 l1 35 40 -47
c23 -27 45 -48 49 -48 20 0 17 32 -7 60 l-26 31 22 15 c25 18 29 75 6 94 -23
19 -107 25 -122 9z m95 -53 c4 -20 -13 -36 -40 -36 -13 0 -18 8 -18 31 0 27 3
30 27 27 18 -2 29 -10 31 -22z"/>
<path d="M2281 461 c-18 -11 -5 -31 20 -31 17 0 19 -7 19 -79 0 -53 4 -82 13
-90 25 -20 37 9 37 91 0 71 2 78 19 78 25 0 38 20 20 31 -18 11 -110 11 -128
0z"/>
<path d="M2502 458 c-17 -17 -17 -182 1 -197 20 -16 37 6 37 46 0 30 3 33 31
33 24 0 30 4 27 18 -2 10 -14 18 -31 20 -21 3 -27 9 -27 28 0 21 5 24 36 24
28 0 35 3 32 18 -4 21 -86 30 -106 10z"/>
<path d="M2750 453 c-44 -23 -62 -57 -56 -106 12 -106 152 -127 192 -30 39 93
-48 180 -136 136z m84 -45 c46 -66 -19 -153 -76 -101 -23 20 -24 80 -1 105 22
25 59 23 77 -4z"/>
<path d="M2992 458 c-18 -18 -16 -182 2 -197 21 -18 101 -10 101 9 0 10 -12
16 -32 18 l-33 3 0 78 c0 82 -14 113 -38 89z"/>
<path d="M3172 458 c-17 -17 -16 -182 1 -197 26 -21 37 9 37 100 0 90 -13 122
-38 97z"/>
<path d="M3374 463 c-12 -2 -32 -15 -45 -29 -33 -36 -34 -112 -1 -147 50 -54
140 -38 168 30 35 83 -33 165 -122 146z m70 -55 c46 -66 -19 -153 -76 -101
-23 20 -24 80 -1 105 22 25 59 23 77 -4z"/>
<path d="M3593 459 c-18 -18 -18 -183 0 -198 20 -16 37 6 37 49 l1 35 40 -47
c23 -27 45 -48 49 -48 20 0 17 32 -7 60 l-26 31 22 15 c25 18 29 75 6 94 -23
19 -107 25 -122 9z m95 -53 c4 -20 -13 -36 -40 -36 -13 0 -18 8 -18 31 0 27 3
30 27 27 18 -2 29 -10 31 -22z"/>
<path d="M3823 459 c-18 -18 -18 -183 0 -198 20 -16 37 6 37 49 l1 35 40 -47
c23 -27 45 -48 49 -48 20 0 17 32 -7 60 l-26 31 22 15 c25 18 29 75 6 94 -23
19 -107 25 -122 9z m95 -53 c4 -20 -13 -36 -40 -36 -13 0 -18 8 -18 31 0 27 3
30 27 27 18 -2 29 -10 31 -22z"/>
<path d="M4063 459 c-18 -18 -18 -183 0 -198 20 -16 37 6 37 49 l1 35 40 -47
c23 -27 45 -48 49 -48 20 0 17 32 -7 60 l-26 31 22 15 c25 18 29 75 6 94 -23
19 -107 25 -122 9z m95 -53 c4 -20 -13 -36 -40 -36 -13 0 -18 8 -18 31 0 27 3
30 27 27 18 -2 29 -10 31 -22z"/>
</g>
</svg>
