<?xml version="1.0" standalone="no"?>
<!DOCTYPE svg PUBLIC "-//W3C//DTD SVG 20010904//EN"
 "http://www.w3.org/TR/2001/REC-SVG-20010904/DTD/svg10.dtd">
<svg version="1.0" xmlns="http://www.w3.org/2000/svg"
 width="233.000000pt" height="233.000000pt" viewBox="0 0 233.000000 233.000000"
 preserveAspectRatio="xMidYMid meet">

<g transform="translate(0.000000,233.000000) scale(0.100000,-0.100000)"
fill="#9839e6" stroke="none">
<path d="M1094 2008 c-122 -13 -233 -59 -341 -140 -154 -116 -263 -335 -263
-528 0 -142 58 -314 135 -399 43 -48 82 -54 115 -19 31 33 25 64 -31 174 -50
98 -52 105 -57 202 -6 138 14 220 80 318 87 131 218 216 357 233 171 22 317
-33 442 -165 67 -72 104 -145 126 -250 31 -152 -13 -317 -111 -420 -32 -33
-50 -44 -72 -44 -40 0 -54 16 -54 60 0 67 -28 136 -73 182 -87 88 -191 111
-292 64 -60 -27 -131 -103 -145 -155 -6 -21 -10 -185 -10 -394 l0 -358 25 -24
c32 -33 74 -33 106 1 l24 26 5 354 c5 351 5 354 28 376 34 35 102 32 139 -5
l28 -27 2 -341 c2 -310 4 -344 21 -373 29 -50 100 -48 127 4 12 22 15 66 15
193 0 192 1 195 103 249 129 69 239 216 283 378 25 94 22 245 -6 335 -63 201
-182 341 -365 433 -104 52 -226 73 -341 60z"/>
<path d="M1117 1692 c-34 -8 -90 -62 -107 -102 -35 -85 50 -190 153 -190 99 0
178 142 124 221 -41 61 -103 86 -170 71z"/>
</g>
</svg>
